<svg width="62" height="36" viewBox="0 0 62 36" fill="none" xmlns="http://www.w3.org/2000/svg">
<path d="M9.70498 6.84567H15.3025V8.6935H11.7574V12.112H14.5749V13.9598H11.7574V17.9326H15.3025V19.7805H9.70498V6.84567Z" fill="white"/>
<path d="M19.3194 19.9652C18.3242 19.9652 17.5655 19.6881 17.043 19.1337C16.5206 18.567 16.2594 17.7602 16.2594 16.7131V9.91306C16.2594 8.86596 16.5206 8.06524 17.043 7.51089C17.5655 6.94422 18.3242 6.66089 19.3194 6.66089C20.3145 6.66089 21.0733 6.94422 21.5957 7.51089C22.1181 8.06524 22.3794 8.86596 22.3794 9.91306V11.0218H20.4389V9.78372C20.4389 8.93372 20.0844 8.50872 19.3753 8.50872C18.6663 8.50872 18.3118 8.93372 18.3118 9.78372V16.8609C18.3118 17.6986 18.6663 18.1174 19.3753 18.1174C20.0844 18.1174 20.4389 17.6986 20.4389 16.8609V14.3294H19.4127V12.4815H22.3794V16.7131C22.3794 17.7602 22.1181 18.567 21.5957 19.1337C21.0733 19.6881 20.3145 19.9652 19.3194 19.9652Z" fill="white"/>
<path d="M25.2337 14.2739L22.7521 6.84567H24.9352L26.3345 11.5946H26.3719L27.7712 6.84567H29.7677L27.2861 14.2739V19.7805H25.2337V14.2739Z" fill="white"/>
<path d="M30.6177 6.84567H33.6404C34.6604 6.84567 35.4254 7.11669 35.9354 7.65872C36.4454 8.20074 36.7004 8.99531 36.7004 10.0424V11.3174C36.7004 12.3645 36.4454 13.1591 35.9354 13.7011C35.4254 14.2431 34.6604 14.5141 33.6404 14.5141H32.6701V19.7805H30.6177V6.84567ZM33.6404 12.6663C33.9762 12.6663 34.225 12.5739 34.3867 12.3892C34.5609 12.2044 34.6479 11.8902 34.6479 11.4468V9.91306C34.6479 9.46958 34.5609 9.15545 34.3867 8.97067C34.225 8.78589 33.9762 8.6935 33.6404 8.6935H32.6701V12.6663H33.6404Z" fill="white"/>
<path d="M39.3815 8.6935H37.2358V6.84567H43.5797V8.6935H41.434V19.7805H39.3815V8.6935Z" fill="white"/>
<path d="M44.4988 6.84567H46.5512V19.7805H44.4988V6.84567Z" fill="white"/>
<path d="M49.5997 6.84567H52.3798L54.5069 19.7805H52.4544L52.0813 17.212V17.2489H49.749L49.3758 19.7805H47.4726L49.5997 6.84567ZM51.8387 15.4935L50.9244 9.10002H50.8871L49.9915 15.4935H51.8387Z" fill="white"/>
<path d="M55.428 6.84567H58.0029L59.9994 14.5881H60.0367V6.84567H61.8652V19.7805H59.7568L57.2939 10.3381H57.2565V19.7805H55.428V6.84567Z" fill="white"/>
<path d="M12.3731 35.487C11.378 35.487 10.6255 35.2098 10.1155 34.6555C9.60546 34.0888 9.35046 33.2819 9.35046 32.2348V31.4957H11.291V32.3826C11.291 33.2203 11.6455 33.6391 12.3545 33.6391C12.7028 33.6391 12.964 33.5406 13.1381 33.3435C13.3247 33.1341 13.418 32.8015 13.418 32.3457C13.418 31.8036 13.2936 31.3294 13.0449 30.9228C12.7961 30.504 12.3358 30.0051 11.6641 29.4261C10.8183 28.687 10.2274 28.0218 9.89156 27.4305C9.55571 26.8268 9.38778 26.1493 9.38778 25.3978C9.38778 24.3754 9.649 23.587 10.1714 23.0326C10.6939 22.466 11.4527 22.1826 12.4478 22.1826C13.4305 22.1826 14.1706 22.466 14.6681 23.0326C15.1781 23.587 15.4331 24.3877 15.4331 25.4348V25.9707H13.4927V25.3055C13.4927 24.862 13.4056 24.5417 13.2314 24.3446C13.0573 24.1352 12.8023 24.0305 12.4664 24.0305C11.7823 24.0305 11.4402 24.4431 11.4402 25.2685C11.4402 25.7366 11.5646 26.1739 11.8134 26.5805C12.0746 26.987 12.5411 27.4797 13.2128 28.0587C14.0711 28.7978 14.6619 29.4692 14.9853 30.0728C15.3088 30.6765 15.4705 31.3848 15.4705 32.1978C15.4705 33.2573 15.203 34.0703 14.6681 34.637C14.1457 35.2036 13.3807 35.487 12.3731 35.487Z" fill="white"/>
<path d="M18.1773 24.2152H16.0315V22.3674H22.3754V24.2152H20.2297V35.3022H18.1773V24.2152Z" fill="white"/>
<path d="M23.2945 22.3674H26.3359C27.3932 22.3674 28.1644 22.6138 28.6495 23.1065C29.1346 23.587 29.3772 24.3323 29.3772 25.3424V26.137C29.3772 27.4797 28.9294 28.3297 28.0338 28.687V28.7239C28.5313 28.8718 28.8796 29.1736 29.0787 29.6294C29.2901 30.0852 29.3959 30.6949 29.3959 31.4587V33.7315C29.3959 34.1011 29.4083 34.4029 29.4332 34.637C29.458 34.8587 29.5202 35.0805 29.6198 35.3022H27.53C27.4554 35.0928 27.4056 34.8957 27.3807 34.7109C27.3559 34.5261 27.3434 34.1935 27.3434 33.7131V31.3478C27.3434 30.7565 27.2439 30.3439 27.0449 30.1098C26.8583 29.8757 26.5287 29.7587 26.056 29.7587H25.347V35.3022H23.2945V22.3674ZM26.0933 27.9109C26.5038 27.9109 26.8085 27.8062 27.0076 27.5968C27.219 27.3873 27.3248 27.0363 27.3248 26.5435V25.5457C27.3248 25.0776 27.2377 24.7388 27.0635 24.5294C26.9018 24.3199 26.6406 24.2152 26.2799 24.2152H25.347V27.9109H26.0933Z" fill="white"/>
<path d="M30.7452 22.3674H36.3428V24.2152H32.7977V27.6337H35.6151V29.4815H32.7977V33.4544H36.3428V35.3022H30.7452V22.3674Z" fill="white"/>
<path d="M37.4489 22.3674H43.0465V24.2152H39.5013V27.6337H42.3188V29.4815H39.5013V33.4544H43.0465V35.3022H37.4489V22.3674Z" fill="white"/>
<path d="M45.7572 24.2152H43.6115V22.3674H49.9554V24.2152H47.8096V35.3022H45.7572V24.2152Z" fill="white"/>
<path d="M53.5426 35.487C52.5475 35.487 51.7949 35.2098 51.2849 34.6555C50.7749 34.0888 50.5199 33.2819 50.5199 32.2348V31.4957H52.4604V32.3826C52.4604 33.2203 52.8149 33.6391 53.524 33.6391C53.8723 33.6391 54.1335 33.5406 54.3076 33.3435C54.4942 33.1341 54.5875 32.8015 54.5875 32.3457C54.5875 31.8036 54.4631 31.3294 54.2143 30.9228C53.9655 30.504 53.5053 30.0051 52.8336 29.4261C51.9877 28.687 51.3969 28.0218 51.061 27.4305C50.7252 26.8268 50.5573 26.1493 50.5573 25.3978C50.5573 24.3754 50.8185 23.587 51.3409 23.0326C51.8634 22.466 52.6221 22.1826 53.6173 22.1826C54.5999 22.1826 55.3401 22.466 55.8376 23.0326C56.3476 23.587 56.6026 24.3877 56.6026 25.4348V25.9707H54.6621V25.3055C54.6621 24.862 54.5751 24.5417 54.4009 24.3446C54.2268 24.1352 53.9718 24.0305 53.6359 24.0305C52.9518 24.0305 52.6097 24.4431 52.6097 25.2685C52.6097 25.7366 52.7341 26.1739 52.9829 26.5805C53.2441 26.987 53.7105 27.4797 54.3823 28.0587C55.2405 28.7978 55.8314 29.4692 56.1548 30.0728C56.4782 30.6765 56.6399 31.3848 56.6399 32.1978C56.6399 33.2573 56.3725 34.0703 55.8376 34.637C55.3152 35.2036 54.5502 35.487 53.5426 35.487Z" fill="white"/>
<path d="M0.472961 12.9507V0.922852L8.29509 6.91642L0.472961 12.9507Z" fill="white"/>
<path d="M0.472961 28.012V15.9841L8.29509 21.9777L0.472961 28.012Z" fill="#FFCB00"/>
<path d="M8.29509 35.6819V23.6541L0.472961 29.6476L8.29509 35.6819Z" fill="#122D3D"/>
<path d="M8.29509 20.5444V8.5166L0.472961 14.5102L8.29509 20.5444Z" fill="#122D3D"/>
</svg>
